<?xml version="1.0" encoding="UTF-8" standalone="no"?>
<!-- Created with Inkscape (http://www.inkscape.org/) -->

<svg
   xmlns:dc="http://purl.org/dc/elements/1.1/"
   xmlns:cc="http://creativecommons.org/ns#"
   xmlns:rdf="http://www.w3.org/1999/02/22-rdf-syntax-ns#"
   xmlns:svg="http://www.w3.org/2000/svg"
   xmlns="http://www.w3.org/2000/svg"
   xmlns:sodipodi="http://sodipodi.sourceforge.net/DTD/sodipodi-0.dtd"
   xmlns:inkscape="http://www.inkscape.org/namespaces/inkscape"
   id="svg2"
   version="1.1"
   inkscape:version="0.48.2 r9819"
   width="88.125374"
   height="13.768841"
   xml:space="preserve"
   sodipodi:docname="sensiolabs-small.svg"><metadata
     id="metadata8"><rdf:RDF><cc:Work
         rdf:about=""><dc:format>image/svg+xml</dc:format><dc:type
           rdf:resource="http://purl.org/dc/dcmitype/StillImage" /><dc:title></dc:title></cc:Work></rdf:RDF></metadata><defs
     id="defs6"><clipPath
       clipPathUnits="userSpaceOnUse"
       id="clipPath16"><path
         d="m 0,1190.55 841.89,0 L 841.89,0 0,0 0,1190.55 z"
         id="path18"
         inkscape:connector-curvature="0" /></clipPath></defs><sodipodi:namedview
     pagecolor="#ffffff"
     bordercolor="#666666"
     borderopacity="1"
     objecttolerance="10"
     gridtolerance="10"
     guidetolerance="10"
     inkscape:pageopacity="0"
     inkscape:pageshadow="2"
     inkscape:window-width="1440"
     inkscape:window-height="852"
     id="namedview4"
     showgrid="false"
     inkscape:zoom="1.088508"
     inkscape:cx="228.88711"
     inkscape:cy="45.487623"
     inkscape:window-x="0"
     inkscape:window-y="0"
     inkscape:window-maximized="1"
     inkscape:current-layer="g10"
     fit-margin-top="0"
     fit-margin-left="0"
     fit-margin-right="0"
     fit-margin-bottom="0"
     showborder="true"><sodipodi:guide
       position="-11.067027,-1458.7806"
       orientation="0,1052.3625"
       id="guide3163" /><sodipodi:guide
       position="1041.2955,-1458.7806"
       orientation="-1488.1875,0"
       id="guide3165" /><sodipodi:guide
       position="1041.2955,29.406896"
       orientation="0,-1052.3625"
       id="guide3167" /><sodipodi:guide
       position="-25.766046,29.406896"
       orientation="1488.1875,0"
       id="guide3169" /></sodipodi:namedview><g
     id="g10"
     inkscape:groupmode="layer"
     inkscape:label="SL_blanc"
     transform="matrix(1.25,0,0,-1.25,-11.067027,1472.5494)"><g
       id="g12"
       transform="matrix(0.21568578,0,0,0.21568578,-48.640342,1038.1161)"><g
         id="g14"
         clip-path="url(#clipPath16)"><g
           id="g20"
           transform="translate(277.0229,615.0093)"><path
             d="m 0,0 c 0,-6.486 5.091,-9.012 10.872,-9.012 3.784,0 9.563,1.094 9.563,6.074 0,5.259 -7.362,6.147 -14.586,8.058 -7.294,1.911 -14.656,4.71 -14.656,13.861 0,9.967 9.495,14.747 18.37,14.747 10.253,0 19.679,-4.44 19.679,-15.703 l -10.459,0 c -0.344,5.871 -4.54,7.373 -9.7,7.373 -3.44,0 -7.431,-1.433 -7.431,-5.531 0,-3.755 2.338,-4.232 14.655,-7.374 3.577,-0.887 14.586,-3.14 14.586,-14.2 0,-8.944 -7.087,-15.635 -20.435,-15.635 -10.871,0 -21.053,5.323 -20.916,17.342 L 0,0 z"
             style="fill:#000000;fill-opacity:1;fill-rule:nonzero;stroke:none"
             id="path22"
             inkscape:connector-curvature="0" /></g><g
           id="g24"
           transform="translate(333.9102,620.4419)"><path
             d="m 0,0 c -0.895,4.953 -3.027,7.568 -7.775,7.568 -6.192,0 -7.981,-4.816 -8.119,-7.568 L 0,0 z m -15.894,-6.193 c 0.275,-6.193 3.303,-9.013 8.738,-9.013 3.922,0 7.088,2.408 7.707,4.611 l 8.599,0 C 6.397,-18.989 0.551,-22.567 -7.5,-22.567 c -11.214,0 -18.165,7.706 -18.165,18.713 0,10.666 7.364,18.784 18.165,18.784 12.109,0 17.957,-10.183 17.271,-21.123 l -25.665,0 z"
             style="fill:#000000;fill-opacity:1;fill-rule:nonzero;stroke:none"
             id="path26"
             inkscape:connector-curvature="0" /></g><g
           id="g28"
           transform="translate(344.5898,634.4097)"><path
             d="m 0,0 9.287,0 0,-4.956 0.207,0 c 2.477,3.991 6.742,5.918 10.871,5.918 10.389,0 13.004,-5.847 13.004,-14.653 l 0,-21.88 -9.77,0 0,20.09 c 0,5.848 -1.72,8.738 -6.263,8.738 -5.297,0 -7.567,-2.958 -7.567,-10.182 l 0,-18.646 -9.769,0 L 0,0 z"
             style="fill:#000000;fill-opacity:1;fill-rule:nonzero;stroke:none"
             id="path30"
             inkscape:connector-curvature="0" /></g><g
           id="g32"
           transform="translate(388.0332,610.397)"><path
             d="m 0,0 c 0.069,-4.267 3.647,-5.986 7.5,-5.986 2.817,0 6.396,1.1 6.396,4.54 0,2.96 -4.058,3.991 -11.075,5.505 -5.641,1.238 -11.282,3.233 -11.282,9.496 0,9.08 7.842,11.42 15.48,11.42 7.773,0 14.929,-2.614 15.684,-11.352 l -9.289,0 c -0.272,3.783 -3.164,4.815 -6.672,4.815 -2.199,0 -5.433,-0.413 -5.433,-3.301 0,-3.509 5.503,-3.991 11.074,-5.3 5.711,-1.306 11.284,-3.37 11.284,-9.974 0,-9.359 -8.118,-12.385 -16.235,-12.385 -8.256,0 -16.307,3.095 -16.721,12.522 L 0,0 z"
             style="fill:#000000;fill-opacity:1;fill-rule:nonzero;stroke:none"
             id="path34"
             inkscape:connector-curvature="0" /></g><path
           d="m 412.522,634.41 9.769,0 0,-35.571 -9.769,0 0,35.571 z m 9.769,5.504 -9.769,0 0,8.05 9.769,0 0,-8.05 z"
           style="fill:#000000;fill-opacity:1;fill-rule:nonzero;stroke:none"
           id="path36"
           inkscape:connector-curvature="0" /><g
           id="g38"
           transform="translate(441.6133,605.2358)"><path
             d="m 0,0 c 6.674,0 8.669,5.711 8.669,11.353 0,5.711 -1.995,11.421 -8.669,11.421 -6.604,0 -8.601,-5.71 -8.601,-11.421 C -8.601,5.711 -6.604,0 0,0 m 0,30.136 c 11.214,0 18.438,-7.43 18.438,-18.783 C 18.438,0.069 11.214,-7.361 0,-7.361 c -11.146,0 -18.37,7.43 -18.37,18.714 0,11.353 7.224,18.783 18.37,18.783"
             style="fill:#000000;fill-opacity:1;fill-rule:nonzero;stroke:none"
             id="path40"
             inkscape:connector-curvature="0" /></g><g
           id="g42"
           transform="translate(461.9121,599.1577)"><path
             d="m 0,0 0,48.222 9.817,0 0,-40.031 19.41,0 L 29.227,0 0,0 z"
             style="fill:#82e83f;fill-opacity:1;fill-rule:nonzero;stroke:none"
             id="path44"
             inkscape:connector-curvature="0" /></g><g
           id="g46"
           transform="translate(513.7754,616.0718)"><path
             d="m 0,0 c -1.193,-0.397 -3.084,-0.873 -5.671,-1.426 -2.587,-0.553 -4.278,-1.095 -5.074,-1.625 -1.216,-0.862 -1.823,-1.957 -1.823,-3.283 0,-1.306 0.485,-2.433 1.459,-3.383 0.972,-0.951 2.211,-1.427 3.714,-1.427 1.68,0 3.284,0.553 4.809,1.659 1.127,0.84 1.867,1.868 2.222,3.085 C -0.121,-5.604 0,-4.091 0,-1.857 L 0,0 z m -12.47,7.562 -8.457,1.526 c 0.95,3.404 2.587,5.925 4.909,7.561 2.321,1.636 5.77,2.455 10.347,2.455 4.157,0 7.252,-0.493 9.286,-1.476 C 5.649,16.644 7.082,15.395 7.91,13.88 8.74,12.365 9.154,9.585 9.154,5.539 L 9.055,-5.34 c 0,-3.096 0.149,-5.378 0.447,-6.848 0.299,-1.47 0.857,-3.046 1.676,-4.726 l -9.221,0 c -0.243,0.619 -0.541,1.536 -0.894,2.753 -0.157,0.552 -0.266,0.917 -0.333,1.095 -1.591,-1.549 -3.294,-2.709 -5.107,-3.483 -1.813,-0.774 -3.748,-1.161 -5.805,-1.161 -3.626,0 -6.483,0.983 -8.572,2.951 -2.09,1.968 -3.135,4.455 -3.135,7.463 0,1.989 0.476,3.764 1.426,5.323 0.951,1.559 2.283,2.752 3.997,3.581 1.713,0.83 4.185,1.554 7.412,2.173 4.357,0.818 7.374,1.58 9.054,2.288 l 0,0.929 c 0,1.791 -0.441,3.068 -1.326,3.831 -0.885,0.763 -2.554,1.144 -5.008,1.144 -1.658,0 -2.951,-0.327 -3.881,-0.979 -0.928,-0.652 -1.68,-1.796 -2.255,-3.432"
             style="fill:#82e83f;fill-opacity:1;fill-rule:nonzero;stroke:none"
             id="path48"
             inkscape:connector-curvature="0" /></g><g
           id="g50"
           transform="translate(535.9082,617.5317)"><path
             d="m 0,0 c 0,-3.648 0.575,-6.347 1.725,-8.093 1.614,-2.476 3.758,-3.715 6.434,-3.715 2.056,0 3.808,0.879 5.257,2.637 1.447,1.758 2.172,4.527 2.172,8.309 0,4.023 -0.73,6.925 -2.189,8.705 -1.46,1.78 -3.328,2.67 -5.604,2.67 C 5.561,10.513 3.703,9.645 2.223,7.909 0.741,6.174 0,3.537 0,0 m -9.252,-18.374 0,48.62 9.318,0 0,-17.511 c 2.875,3.272 6.28,4.909 10.215,4.909 4.289,0 7.838,-1.554 10.647,-4.661 2.807,-3.106 4.212,-7.567 4.212,-13.381 0,-6.015 -1.432,-10.647 -4.295,-13.897 -2.864,-3.25 -6.341,-4.875 -10.431,-4.875 -2.012,0 -3.996,0.503 -5.953,1.509 -1.957,1.006 -3.643,2.493 -5.058,4.461 l 0,-5.174 -8.655,0 z"
             style="fill:#82e83f;fill-opacity:1;fill-rule:nonzero;stroke:none"
             id="path52"
             inkscape:connector-curvature="0" /></g><g
           id="g54"
           transform="translate(560.5303,609.2065)"><path
             d="m 0,0 9.353,1.427 c 0.398,-1.814 1.205,-3.191 2.421,-4.13 1.215,-0.94 2.918,-1.409 5.108,-1.409 2.409,0 4.222,0.442 5.438,1.327 0.818,0.618 1.228,1.447 1.228,2.487 0,0.707 -0.222,1.293 -0.664,1.758 C 22.42,1.901 21.38,2.311 19.767,2.687 12.249,4.345 7.483,5.859 5.473,7.23 2.687,9.132 1.294,11.774 1.294,15.157 c 0,3.051 1.205,5.615 3.615,7.695 2.409,2.077 6.147,3.117 11.209,3.117 4.82,0 8.403,-0.785 10.746,-2.355 2.344,-1.57 3.957,-3.891 4.842,-6.965 l -8.789,-1.625 c -0.376,1.371 -1.089,2.421 -2.139,3.151 -1.05,0.729 -2.549,1.095 -4.494,1.095 -2.454,0 -4.212,-0.344 -5.273,-1.029 -0.707,-0.486 -1.061,-1.117 -1.061,-1.89 0,-0.663 0.309,-1.227 0.928,-1.692 0.84,-0.619 3.742,-1.492 8.707,-2.62 4.963,-1.127 8.429,-2.51 10.396,-4.145 1.946,-1.659 2.918,-3.969 2.918,-6.932 0,-3.229 -1.347,-6.003 -4.045,-8.324 -2.698,-2.322 -6.689,-3.483 -11.972,-3.483 -4.799,0 -8.596,0.973 -11.393,2.919 C 2.692,-5.98 0.862,-3.339 0,0"
             style="fill:#82e83f;fill-opacity:1;fill-rule:nonzero;stroke:none"
             id="path56"
             inkscape:connector-curvature="0" /></g></g></g></g></svg>